<?xml version="1.0" standalone="no"?><!DOCTYPE svg PUBLIC "-//W3C//DTD SVG 1.1//EN" "http://www.w3.org/Graphics/SVG/1.1/DTD/svg11.dtd"><svg t="1492060384219" class="icon" style="" viewBox="0 0 1024 1024" version="1.1" xmlns="http://www.w3.org/2000/svg" p-id="2465" xmlns:xlink="http://www.w3.org/1999/xlink" width="32" height="32"><defs><style type="text/css"></style></defs><path d="M848.106057 285.227886h-40.418743L807.497143 819.872914C807.497143 851.602286 781.458286 877.714286 749.860571 877.714286l-482.026057-0.424229c-31.349029 0-53.028571-21.796571-53.028571-53.379657V285.227886h-40.418743c-9.216 0-13.472914-5.9392-13.472914-13.458286 0-9.406171 7.343543-14.043429 14.716343-14.043429H332.8v-22.981485c0-31.553829 25.8048-57.5488 57.168457-57.5488H626.980571c31.3344 0 57.153829 25.994971 57.153829 57.5488v22.966857H846.848c9.216 0 13.341257 5.866057 14.760229 15.067428-0.833829 9.362286-6.144 12.448914-13.502172 12.448915z m-191.619657-50.4832c0-14.848-12.887771-27.8528-27.648-27.8528H391.811657c-14.760229 0-27.662629 13.0048-27.662628 27.8528v22.966857h292.337371v-22.966857z m124.255086 50.4832l-538.7264 1.857828-1.8432 534.528c0 14.848 13.780114 29.227886 28.525714 29.227886l488.404114-0.029257c14.599314 0 23.727543-16.925257 23.727543-33.835886l-0.087771-531.748571z m-134.875429 457.8304c-6.743771 0-13.487543-5.558857-13.487543-14.862629V407.888457c0-9.289143 5.061486-14.877257 13.487543-14.877257 8.426057 0 11.790629 7.445943 13.487543 14.877257V728.210286c0 9.289143-6.743771 14.862629-13.487543 14.862628z m-134.729143 0c-6.743771 0-13.502171-5.558857-13.502171-14.862629V407.888457c0-9.289143 5.076114-14.877257 13.487543-14.877257 8.440686 0 11.805257 7.445943 13.487543 14.877257V728.210286c0 9.289143-6.729143 14.862629-13.487543 14.862628z m-134.729143 0c-6.7584 0-13.502171-5.558857-13.502171-14.862629V407.888457c0-9.289143 5.061486-14.877257 13.487543-14.877257 8.440686 0 11.805257 7.445943 13.487543 14.877257V728.210286c0 9.289143-6.743771 14.862629-13.487543 14.862628z" p-id="2466" fill="#cdcdcd"></path></svg>