<?xml version="1.0" standalone="no"?><!DOCTYPE svg PUBLIC "-//W3C//DTD SVG 1.1//EN" "http://www.w3.org/Graphics/SVG/1.1/DTD/svg11.dtd"><svg t="1492744933824" class="icon" style="" viewBox="0 0 1114 1024" version="1.1" xmlns="http://www.w3.org/2000/svg" p-id="3717" xmlns:xlink="http://www.w3.org/1999/xlink" width="139.25" height="128"><defs><style type="text/css"></style></defs><path d="M615.139556 189.610667c0-27.477333-20.252444-49.92-44.999111-49.92-24.746667 0-44.999111 22.471111-44.999111 49.92l0 207.928889 0 57.344c0 4.039111-3.128889 7.338667-6.997333 7.338667l-54.983111 0L266.723556 462.222222c-26.368 0-47.957333 20.622222-47.957333 45.795556 0 25.201778 21.589333 45.824 47.957333 45.824l198.627556 0 53.873778 0c3.214222 0 5.888 3.242667 5.888 7.281778l0 57.230222 0 210.944c0 27.448889 20.252444 49.92 44.999111 49.92 24.775111 0 44.999111-22.471111 44.999111-49.92l0-214.840889 0-55.239111c0-2.901333 2.389333-5.290667 5.319111-5.290667l53.248 0 208.156444 0c26.396444 0 47.985778-20.622222 47.985778-45.852444 0-25.173333-21.589333-45.795556-47.985778-45.795556l-205.909333 0-54.414222 0c-3.555556 0-6.428444-4.039111-6.428444-8.931556l0-58.936889L615.082667 189.610667 615.139556 189.610667zM615.139556 189.610667" p-id="3718" fill="#515151"></path></svg>